<svg width="892" height="181" viewBox="0 0 892 181" fill="none" xmlns="http://www.w3.org/2000/svg">
<path d="M145.55 0.00383425C61.1331 0.0433543 15.3407 0.390629 12.9851 1.02502C10.328 1.74048 6.41764 4.13771 4.29527 6.35266L0.435448 10.3811L0.080757 88.3747C-0.169701 143.043 0.154362 167.409 1.16573 169.85C3.20496 174.774 8.03199 178.941 13.0951 180.149C15.4783 180.717 118.298 181.091 241.585 180.981C463.212 180.783 465.795 180.75 470.172 178.165C472.607 176.727 475.695 173.502 477.034 170.997C479.329 166.704 479.467 162.086 479.467 90.6135C479.464 6.93076 479.691 9.34252 471.203 3.1158L467.514 0.407184L242.665 0.0653431C206.121 0.010015 173.69 -0.00927762 145.551 0.00406039L145.55 0.00383425ZM424.571 58.2031V66.8826V75.5621L415.751 75.5671C408.84 75.571 405.934 76.2083 402.351 78.5079L397.779 81.4437L406.926 82.0972L416.075 82.7507L416.468 90.2662L416.861 97.7817H407.646C397.417 97.7817 396.194 99.0722 402.678 103.025C405.802 104.93 409.263 105.615 415.751 105.619L424.571 105.624V113.466L424.573 113.469V121.311L413.79 121.281C397.56 121.237 387.404 115.197 381.977 102.357C379.132 95.627 379.191 83.8202 382.1 78.0545C388.276 65.8109 398.102 59.855 413.726 58.8802L424.571 58.2031ZM518.678 58.5706V90.5931V122.616H538.283H557.889V114.12V105.624H546.782H535.669V82.0974V58.5706H527.176H518.678ZM705.585 58.5706V90.5931V122.616H714.081H722.576V112.974C722.576 97.9451 723.957 97.8062 738.493 111.371L750.545 122.616H761.704H772.862L756.215 105.933C747.06 96.7574 739.568 88.6787 739.568 87.9817C739.568 87.2845 745.883 80.3813 753.598 72.6417L767.626 58.5706H755.911H744.199L733.388 69.3256L722.576 80.0781V69.3256V58.5706H714.081H705.585ZM781.393 58.5706V90.5931V122.616H800.999H820.605V116.08V109.545H809.497H798.385V103.01V96.4749H808.188H817.99V89.9396V83.4044H808.188H798.385V77.5227V71.641H809.497H820.605V65.1058V58.5706H800.999H781.393ZM834.982 58.5706V90.5931V122.616H842.824H850.667V114.12V105.624H856.426C862.131 105.624 862.228 105.701 867.153 114.12L872.123 122.616H881.709H891.297L887.721 116.407C885.753 112.993 882.711 107.886 880.961 105.057C878.482 101.051 878.101 99.4634 879.238 97.8687C888.51 84.8591 886.113 69.1371 873.754 61.8944C868.487 58.8076 866.902 58.5706 851.532 58.5706H834.982ZM598.407 58.6269C574.089 58.6269 558.82 84.2847 570.436 105.627C574.726 113.508 580.278 118.207 588.242 120.694C595.607 122.993 600.596 123.012 608.062 120.765C616.558 118.208 621.992 113.696 626.463 105.481C638.027 84.2344 622.693 58.6271 598.407 58.6271V58.6269ZM671.809 58.6615C668.537 58.7109 665.2 59.2005 661.952 60.16C654.2 62.4506 643.853 73.1281 641.616 81.1466C636.756 98.5752 646.157 115.701 663.752 121.471C671.876 124.135 688.864 120.092 693.617 114.364C694.92 112.795 694.094 111.534 688.928 107.208C683.267 102.469 682.409 102.136 680.146 103.79C678.767 104.799 675.044 105.623 671.875 105.623C667.064 105.623 665.379 104.889 661.669 101.179C658.077 97.5868 657.224 95.7189 657.224 91.4371C657.224 84.4815 659.512 79.7204 663.951 77.4247C668.332 75.159 675.517 75.0174 680.105 77.1081C683.238 78.5356 683.926 78.2262 688.989 73.1104L694.475 67.5656L690.74 64.538C685.879 60.6005 679.006 58.5571 671.809 58.6614V58.6615ZM153.344 59.0522C160.349 58.9584 169.485 62.304 174.905 67.2008C191.539 82.2283 187.81 109.122 167.788 118.533C160.326 122.041 148.884 122.188 141.599 118.87C135.608 116.142 127.949 108.195 125.416 102.08C123.795 98.1657 123.223 97.8792 116.346 97.5156C109.976 97.1787 108.754 96.6731 107.082 93.6837C105.356 90.598 105.389 89.8845 107.396 86.8217C109.35 83.8397 110.528 83.4036 116.635 83.4036C123.31 83.4036 123.715 83.2059 125.348 79.1557C129.421 69.0497 139.225 61.3123 150.49 59.3101C151.387 59.1505 152.344 59.0655 153.344 59.0522L153.344 59.0522ZM270.958 59.2562C279.074 59.3481 287.261 62.7176 293.392 69.2378C301.243 77.5883 302.202 80.9353 302.776 102.029L303.299 121.308H294.66H286.024V102.879V84.45L281.416 79.8422C277.099 75.5248 276.392 75.2765 270.189 75.8726C265.306 76.3419 262.658 77.4196 260.093 79.9825C256.694 83.3778 256.605 83.8862 256.192 102.381L255.768 121.308H248.023H240.278L240.273 106.603C240.269 98.5161 239.663 89.7315 238.927 87.082C236.21 77.2985 225.815 72.8364 216.71 77.5446C210.167 80.9282 208.909 85.2311 208.909 104.252V121.308H201.066H193.224V103.489C193.224 83.1874 194.467 77.6322 200.625 70.4376C211.661 57.5445 229.951 55.7508 243.913 66.1922L248.204 69.4012L251.102 66.7538C256.689 61.6471 263.796 59.1749 270.958 59.2562H270.958ZM341.819 59.3279C352.485 59.6401 362.976 65.5053 368.697 76.7866C372.121 83.5377 372.289 84.7606 372.289 102.591V121.308H364.447H356.605V104.842C356.605 92.3084 356.094 87.298 354.468 83.8706C349.643 73.7042 334.545 72.6121 328.204 81.9714C326.355 84.701 325.814 88.8774 325.445 103.336L324.985 121.308H317.151H309.319L309.763 101.375C310.189 82.2578 310.357 81.1884 313.888 75.1809C320.31 64.2552 331.152 59.0154 341.819 59.3279H341.819ZM851.32 72.2936L858.984 72.3331C865.405 72.3677 867.047 72.8649 869.113 75.4169C872.48 79.5747 872.21 84.1986 868.373 88.0354C865.732 90.6764 863.872 91.2443 857.858 91.2443H850.554L850.937 81.7683L851.32 72.2936ZM598.908 74.8541C600.593 74.9159 602.289 75.2814 603.934 75.9723C615.947 81.0167 617.387 97.9027 606.293 103.64C591.433 111.324 576.527 95.6292 585.707 81.9637C588.892 77.2221 593.851 74.6688 598.908 74.8541ZM154.503 75.6327C151.304 75.5166 148.146 76.3429 145.696 78.2699C141.076 81.9041 141.358 83.4035 146.666 83.4035C151.779 83.4035 154.34 85.8804 154.34 90.822C154.34 95.2073 150.909 97.781 145.065 97.781C140.541 97.781 140.54 97.7847 143.028 100.551C144.398 102.073 146.694 103.799 148.131 104.388C161.598 109.899 174.357 96.201 167.716 83.3601C165.276 78.6404 159.835 75.8263 154.503 75.6327V75.6327Z" fill="#22326E"/>
</svg>
