<svg width="338" height="267" viewBox="0 0 338 267" fill="none" xmlns="http://www.w3.org/2000/svg">
<path d="M205.552 1.13428C175.992 1.16641 147.296 11.1359 124.043 29.451C100.791 47.7662 84.3243 73.3709 77.2715 102.177H32.2364C14.9309 102.177 1 116.108 1 133.414C1 150.719 14.9309 164.652 32.2364 164.652H77.0762C83.9737 193.649 100.4 219.471 123.707 237.956C147.014 256.44 175.844 266.512 205.552 266.546C240.625 266.546 274.261 252.565 299.061 227.677C323.861 202.79 337.794 169.036 337.794 133.84C337.794 98.6446 323.861 64.8905 299.061 40.0033C274.261 15.1161 240.625 1.13452 205.552 1.13428V1.13428ZM206.016 66.6729C214.744 66.673 223.387 68.4043 231.451 71.7682C239.515 75.1321 246.842 80.0626 253.014 86.2782C259.186 92.4938 264.082 99.8728 267.422 107.994C270.762 116.115 272.481 124.819 272.481 133.609C272.481 151.361 265.478 168.386 253.013 180.939C240.549 193.492 223.643 200.544 206.016 200.544C193.889 200.537 181.995 197.189 171.622 190.862C161.249 184.536 152.792 175.472 147.168 164.652H173.617C190.922 164.652 204.855 150.719 204.855 133.414C204.855 116.108 190.922 102.177 173.617 102.177H147.368C153.028 91.4601 161.476 82.4946 171.807 76.2405C182.137 69.9864 193.962 66.6792 206.016 66.6729V66.6729Z" fill="#22326E" stroke="#22326E" stroke-width="0.29206" stroke-linejoin="round"/>
</svg>
